<?xml version="1.0" encoding="UTF-8"?>
<svg width="15px" height="15px" viewBox="0 0 15 15" version="1.1" xmlns="http://www.w3.org/2000/svg" xmlns:xlink="http://www.w3.org/1999/xlink">
    <!-- Generator: Sketch 52.6 (67491) - http://www.bohemiancoding.com/sketch -->
    <title>dribbble-logo</title>
    <desc>Created with Sketch.</desc>
    <g id="V2" stroke="none" stroke-width="1" fill="none" fill-rule="evenodd">
        <g id="landing-page" transform="translate(-1372.000000, -1490.000000)" fill="#7D7A9E" fill-rule="nonzero">
            <g id="Group-3" transform="translate(0.000000, 1472.000000)">
                <g id="dribbble-logo" transform="translate(1372.000000, 18.000000)">
                    <path d="M7.49970357,0 C3.3574818,0.000313868087 0,3.35800491 0,7.50033131 C0,11.6419253 3.3574818,15 7.49970357,15 C11.6419253,15 14.9995466,11.6419253 15,7.50033131 C14.9995466,3.35800491 11.6419253,0.000313868087 7.49970357,0 Z M12.0950462,3.8886861 C12.8268122,4.81791001 13.2849899,5.96851554 13.3427765,7.22503412 C12.4960999,7.0453272 11.6961199,6.95786263 10.9503344,6.95786263 L10.9503344,6.95768826 L10.9448243,6.95768826 C10.3443947,6.95768826 9.78089683,7.01219668 9.24979715,7.10639198 C9.12072762,6.79004782 8.9898795,6.48618864 8.8580549,6.19516318 C10.0408494,5.6763741 11.1761451,4.93766812 12.0950462,3.8886861 Z M7.49970357,1.64885368 C8.87988617,1.64885368 10.14603,2.13137356 11.148455,2.93466661 C10.3813614,3.85304464 9.36885778,4.51816599 8.27506237,4.98781727 C7.50650404,3.50165188 6.76385728,2.43847604 6.25619308,1.78849011 C6.65804886,1.6993167 7.07284297,1.64885368 7.49970357,1.64885368 Z M4.91520912,2.258804 C5.32135442,2.73853393 6.13451689,3.79372357 7.00302476,5.44118228 C5.23667979,5.96698108 3.45802421,6.09050561 2.38184029,6.09019174 C2.35115097,6.09019174 2.32081038,6.09019174 2.29102779,6.08987787 L2.29005131,6.08987787 C2.10880993,6.08987787 1.95295699,6.08701818 1.82284123,6.08304252 C2.2426921,4.40301127 3.39364638,3.01163404 4.91520912,2.258804 Z M1.64836544,7.50033131 C1.64836544,7.47281554 1.64934192,7.4448464 1.65098101,7.41604029 C1.81806346,7.42221303 2.03233074,7.42751391 2.29022568,7.42751391 L2.2916904,7.42751391 C3.46789362,7.41984158 5.52153251,7.32156599 7.60275692,6.66450059 C7.7162028,6.912561 7.82849783,7.17083956 7.93950251,7.43898753 C6.54965974,7.90382617 5.45502735,8.64438048 4.64538719,9.38186586 C3.8659481,10.0918006 3.3393472,10.7949697 3.03165185,11.2643769 C2.17064194,10.2449682 1.64881881,8.93491771 1.64836544,7.50033131 Z M7.49970357,13.3519135 C6.19753462,13.3519135 4.99733793,12.9212517 4.02368425,12.1986227 C4.23062795,11.8577968 4.6743328,11.2034865 5.38088474,10.5273798 C6.1078381,9.83076698 7.11134412,9.11364815 8.42156901,8.68689217 C8.86691296,9.93528505 9.26988471,11.3623735 9.57684769,12.9687852 C8.93017481,13.2150322 8.2314347,13.3519135 7.49970357,13.3519135 Z M10.8113955,12.3128707 C10.5145112,10.8600451 10.1412871,9.54999454 9.73148004,8.38087079 C10.1115045,8.32636236 10.5104309,8.29560329 10.9315024,8.29560329 L10.9466378,8.29560329 L10.9476143,8.29560329 L10.9485907,8.29560329 C11.6464939,8.29560329 12.4134131,8.3823355 13.2451287,8.57131897 C12.957207,10.1185143 12.0610439,11.4510238 10.8113955,12.3128707 Z" id="Dribbble"></path>
                </g>
            </g>
        </g>
    </g>
</svg>