<?xml version="1.0" encoding="UTF-8"?>
<svg width="15px" height="15px" viewBox="0 0 15 15" version="1.1" xmlns="http://www.w3.org/2000/svg" xmlns:xlink="http://www.w3.org/1999/xlink">
    <!-- Generator: Sketch 52.6 (67491) - http://www.bohemiancoding.com/sketch -->
    <title>instagram-logo</title>
    <desc>Created with Sketch.</desc>
    <g id="V2" stroke="none" stroke-width="1" fill="none" fill-rule="evenodd">
        <g id="landing-page" transform="translate(-1337.000000, -1490.000000)" fill="#7D7A9E">
            <g id="Group-3" transform="translate(0.000000, 1472.000000)">
                <g id="instagram-logo" transform="translate(1337.000000, 18.000000)">
                    <path d="M11.2392073,0 L3.74652439,0 C1.68621951,0 0.000182926829,1.68603659 0.000182926829,3.74634146 L0.000182926829,11.2393902 C0.000182926829,13.2991463 1.68621951,14.9857317 3.74652439,14.9857317 L11.2392073,14.9857317 C13.2995122,14.9857317 14.9855488,13.2991463 14.9855488,11.2393902 L14.9855488,3.74634146 C14.9855488,1.68603659 13.2995122,0 11.2392073,0 Z M13.7367073,11.2393902 C13.7367073,12.6161707 12.6167561,13.7368902 11.2392073,13.7368902 L3.74652439,13.7368902 C2.36956098,13.7368902 1.24902439,12.6161707 1.24902439,11.2393902 L1.24902439,3.74634146 C1.24902439,2.36919512 2.36956098,1.24884146 3.74652439,1.24884146 L11.2392073,1.24884146 C12.6167561,1.24884146 13.7367073,2.36919512 13.7367073,3.74634146 L13.7367073,11.2393902 Z" id="Shape" fill-rule="nonzero"></path>
                    <circle id="Oval" cx="11.5520122" cy="3.43408537" r="1"></circle>
                    <path d="M7.49286585,3.74634146 C5.42337805,3.74634146 3.74652439,5.42337805 3.74652439,7.49268293 C3.74652439,9.56121951 5.42337805,11.2393902 7.49286585,11.2393902 C9.56176829,11.2393902 11.2392073,9.56121951 11.2392073,7.49268293 C11.2392073,5.42337805 9.56176829,3.74634146 7.49286585,3.74634146 Z M7.49286585,9.99054878 C6.11363415,9.99054878 4.99536585,8.87228049 4.99536585,7.49268293 C4.99536585,6.11308537 6.11363415,4.99518293 7.49286585,4.99518293 C8.87209756,4.99518293 9.99036585,6.11308537 9.99036585,7.49268293 C9.99036585,8.87228049 8.87209756,9.99054878 7.49286585,9.99054878 Z" id="Shape" fill-rule="nonzero"></path>
                </g>
            </g>
        </g>
    </g>
</svg>