<?xml version="1.0" encoding="UTF-8"?>
<svg width="15px" height="12px" viewBox="0 0 15 12" version="1.1" xmlns="http://www.w3.org/2000/svg" xmlns:xlink="http://www.w3.org/1999/xlink">
    <!-- Generator: Sketch 52.6 (67491) - http://www.bohemiancoding.com/sketch -->
    <title>twitter-logo</title>
    <desc>Created with Sketch.</desc>
    <g id="V2" stroke="none" stroke-width="1" fill="none" fill-rule="evenodd">
        <g id="landing-page" transform="translate(-1263.000000, -1491.000000)" fill="#7D7A9E">
            <g id="Group-3" transform="translate(0.000000, 1472.000000)">
                <g id="twitter-logo" transform="translate(1263.000000, 19.000000)">
                    <path d="M14.1418511,1.40982456 C13.8225635,1.55161404 13.4911182,1.66347368 13.151019,1.74445614 C13.5257693,1.38782456 13.8075328,0.941754386 13.9664934,0.443859649 C14.0118657,0.301719298 13.8577051,0.178807018 13.7295416,0.254912281 C13.2564088,0.535964912 12.7467679,0.746807018 12.2147387,0.881649123 C12.1838715,0.889473684 12.1520234,0.893438596 12.1200701,0.893438596 C12.0231591,0.893438596 11.928946,0.857403509 11.8548438,0.792 C11.2887942,0.292385965 10.5607708,0.0172280702 9.80492847,0.0172280702 C9.47786277,0.0172280702 9.1476438,0.0682807018 8.82341606,0.168982456 C7.81884964,0.481017544 7.04373723,1.31087719 6.80054891,2.33473684 C6.70931387,2.71877193 6.68461314,3.10315789 6.72707737,3.47719298 C6.73194745,3.52017544 6.71166131,3.55017544 6.69915328,3.56424561 C6.6771854,3.58891228 6.64603796,3.60305263 6.61369927,3.60305263 C6.61009051,3.60305263 6.60637664,3.60287719 6.60269781,3.60252632 C4.40373723,3.39792982 2.42081168,2.33698246 1.01917664,0.615157895 C0.94770219,0.527333333 0.810639416,0.538105263 0.753670073,0.635964912 C0.479194161,1.10754386 0.334143066,1.64691228 0.334143066,2.19575439 C0.334143066,3.03687719 0.671579562,3.82954386 1.25770511,4.40740351 C1.01122336,4.34887719 0.772659854,4.25670175 0.551054015,4.1334386 C0.443842336,4.07378947 0.311929927,4.15045614 0.310423358,4.27326316 C0.295077372,5.52280702 1.02558832,6.63466667 2.11991825,7.13533333 C2.09788029,7.13585965 2.07584234,7.13610526 2.05376934,7.13610526 C1.88030365,7.13610526 1.70466569,7.11933333 1.53179562,7.08624561 C1.41105985,7.06315789 1.3096292,7.17785965 1.34711825,7.29508772 C1.70231825,8.40564912 2.65713285,9.22424561 3.79974307,9.41010526 C2.85144526,10.047614 1.74712993,10.3838947 0.597757664,10.3838947 L0.239439416,10.3836842 C0.129039416,10.3836842 0.0356671533,10.4557544 0.00753284672,10.5628421 C-0.0201810219,10.6683158 0.0308671533,10.7795789 0.125010219,10.8344211 C1.42016934,11.5892632 2.89748321,11.9882105 4.39788613,11.9882105 C5.7112292,11.9882105 6.93974891,11.727193 8.04935474,11.2124561 C9.06656934,10.7405614 9.96546569,10.066 10.7210628,9.20750877 C11.424946,8.40778947 11.9753693,7.48459649 12.3569869,6.46361404 C12.7207708,5.49038596 12.9130511,4.45192982 12.9130511,3.46049123 L12.9130511,3.41326316 C12.9130161,3.25407018 12.9849109,3.1042807 13.1103416,3.00231579 C13.5863124,2.61529825 14.0007942,2.1597193 14.3422248,1.64824561 C14.4323737,1.51319298 14.2901956,1.34392982 14.1418511,1.40982456 Z" id="Path"></path>
                </g>
            </g>
        </g>
    </g>
</svg>